<?xml version="1.0" encoding="utf-8"?>
<!-- Generator: Adobe Illustrator 15.0.0, SVG Export Plug-In . SVG Version: 6.00 Build 0)  -->
<!DOCTYPE svg PUBLIC "-//W3C//DTD SVG 1.1//EN" "http://www.w3.org/Graphics/SVG/1.1/DTD/svg11.dtd">
<svg version="1.1" id="アイコン" xmlns="http://www.w3.org/2000/svg" xmlns:xlink="http://www.w3.org/1999/xlink" x="0px"
	 y="0px" width="672.343px" height="380.048px" viewBox="104.426 212.892 672.343 380.048"
	 enable-background="new 104.426 212.892 672.343 380.048" xml:space="preserve">
<g>
	<g>
		<polygon fill="#F9C993" points="622.534,582.541 621.051,464.843 646.891,464.21 635.141,582.505 		"/>
		<path fill="#1F286E" d="M621.321,577.244c0,0,6.465,2.992,8.234,2.17c1.771-0.822,5.594-1.523,5.865-2.264
			s19.676,6.611,20.184,7.377c0.508,0.764,4.375,7.844-4.52,8.057c-8.893,0.213-29.764,0.457-31.051-0.33
			C618.747,591.468,617.758,578.095,621.321,577.244z"/>
		<path fill="#1A264B" d="M620.104,467.435l26.512-0.459c0,0,5.328-33.242,5.92-52.234c0.592-18.99-2.078-30.355-2.078-30.355
			l-34.002,1.426C616.456,385.811,603.629,386.16,620.104,467.435z"/>
		<path fill="#234098" d="M651.098,387.845c0,0-36.561,5.098-37.49,1.398c-0.934-3.699,1.758-11.072,2.408-17.447
			s-5.299-33.739-6.908-38.525c-1.611-4.786-8.275-29.053-7.455-35.891c0.82-6.837,3.18-28.225,3.18-28.225
			s8.428-2.377,20.582-0.033c12.158,2.344,18.533,4.254,21.824,7.976c3.289,3.721,16.242,34.903,15.422,41.741
			C661.84,325.675,653.77,370.02,651.098,387.845z"/>
		<path fill="#F9C993" d="M604.833,269.155c0,0,0.15-9.602,0.465-16.203c0.314-6.602,2.109-12.664,3.094-16.503
			c0.98-3.838-0.484-13.61,6.09-16.665c6.576-3.055,22.779-2.59,24.053,0.815c1.273,3.403,5.141,29.586,3.75,34.535
			c-1.389,4.949-8.264,5.376-8.264,5.376l2.279,11.047L604.833,269.155z"/>
		<path fill="#292616" d="M605.596,249.481c0,0-4.355-5.972-2.92-11.963c1.434-5.991-0.887-7.68,2.289-14.075
			c3.178-6.396,5.842-7.94,11.875-9.515c6.031-1.573,11.389-1.295,14.955,0.429c3.568,1.724,6.645,5.177,7.219,8.042
			c0.574,2.865-16.635,10.834-16.635,10.834l-11.709,8.668L605.596,249.481z"/>
	</g>
	<path fill="#F9C993" d="M620.922,277.234c-1.291,0.119-13.1,4.02-11.34,22.307c0.555,5.756,14.896,10.398,20.029,10.898
		c5.131,0.5,33.105-3.398,33.105-3.398l79.816-7h6.881h7.799c0,0,6.883,1.5,9.635,1s8.607-3.093,9.809-4.546
		s-7.516-10.532-12.561-10.532c-5.047,0-22.479,0-22.479,0S627.206,276.655,620.922,277.234z"/>
</g>
<g>
	<path fill="#1F286E" d="M173.588,577.388c0,0,6.465,2.992,8.234,2.17c1.771-0.82,5.594-1.523,5.865-2.264
		s19.676,6.613,20.184,7.377c0.508,0.764,4.375,7.844-4.52,8.057c-8.893,0.215-29.764,0.457-31.051-0.328
		C171.014,591.613,170.026,578.24,173.588,577.388z"/>
	<path fill="#234098" d="M150.727,459.367c0,0-33.234-16.066-31.954-19.658c1.279-3.594,11.693-13.17,15.774-18.111
		c4.082-4.938,8.099-33.811,9.418-38.686c1.319-4.873,5.698-22.769,10.178-28c4.479-5.229,7.822-14.515,7.822-14.515
		s27.39-2.985,33.34,5.978c6.848,10.314,13.05,13.83,13.719,18.752c0.668,4.922-5.877,38.047-10.357,43.277
		C194.188,413.634,162.849,446.029,150.727,459.367z"/>
	<path fill="#F9C993" d="M163.016,340.298c0,0-0.657-8.477-0.343-15.077c0.313-6.603,2.11-12.664,3.093-16.503
		c0.982-3.838-0.483-13.61,6.091-16.665c6.575-3.055,22.778-2.59,24.052,0.815c1.274,3.403,5.141,29.586,3.75,34.534
		c-1.389,4.949-8.263,5.377-8.263,5.377l1.371,11.143L163.016,340.298z"/>
	<path fill="#292616" d="M162.972,321.75c0,0-4.355-5.972-2.92-11.963c1.434-5.99-0.887-7.68,2.289-14.075
		c3.178-6.396,5.842-7.94,11.875-9.515c6.031-1.573,11.388-1.295,14.956,0.429c3.568,1.724,6.644,5.177,7.218,8.042
		c0.574,2.865-16.635,10.833-16.635,10.833l-11.708,8.668L162.972,321.75z"/>
	<path fill="#F9C993" d="M171.281,352.783c-1.292,0.119-13.1,4.02-11.34,22.309c0.554,5.756,14.897,10.398,20.029,10.898
		s33.106-3.398,33.106-3.398l79.818-7h6.881h7.799c0,0,6.881,1.5,9.633,1s8.606-3.094,9.808-4.549
		c1.201-1.453-7.515-10.53-12.561-10.53s-22.479,0-22.479,0S177.564,352.205,171.281,352.783z"/>
	<path fill="#F9C993" d="M198.311,461.701l-8.42,30.123c0,0,10.537-0.746,11.918,0.422c1.381,1.166-4.75,10.416-5.56,12.166
		c-0.81,1.75-7.81,11.5-8.56,16.75s-5.5,31.75-5.75,37.25s-2.5,11.5-2.75,12.5s-5.25,5.25-5.25,6.75s20,2,20,1.25
		s5.25-25.75,11.25-38s17.5-35.75,19.5-39s6.322-8.219,7.161-11.484c0.839-3.264,3.661-11.766,0-14.516
		C228.189,473.162,198.311,461.701,198.311,461.701z"/>
	<path fill="#1A264B" d="M119.106,438.289c0,0-11.333,9.623-11.667,20.957c-0.334,11.334,6,22,11.667,24.666
		c5.667,2.668,27.334,8.334,36.667,8.334s38.333,0,38.333,0s6.334-28.666,7.667-29.334c1.333-0.666-35-8.332-35-8.332
		s-7-3.666-6.333-5S117.106,442.664,119.106,438.289z"/>
</g>
</svg>
