<?xml version="1.0" encoding="utf-8"?>
<!-- Generator: Adobe Illustrator 15.0.0, SVG Export Plug-In . SVG Version: 6.00 Build 0)  -->
<!DOCTYPE svg PUBLIC "-//W3C//DTD SVG 1.1//EN" "http://www.w3.org/Graphics/SVG/1.1/DTD/svg11.dtd">
<svg version="1.1" id="アイコン" xmlns="http://www.w3.org/2000/svg" xmlns:xlink="http://www.w3.org/1999/xlink" x="0px"
	 y="0px" width="779.535px" height="158.275px" viewBox="0 0 779.535 158.275" enable-background="new 0 0 779.535 158.275"
	 xml:space="preserve">
<g>
	<polygon fill="#F9C993" points="9.894,124.548 107.845,87.341 116.269,108.753 13.776,135.079 	"/>
	<path fill="#1F286E" d="M13.951,121.915c0,0-0.526,6.318,0.702,7.549c1.228,1.232,2.984,4.211,3.686,4.211s0.483,18.475,0,19.129
		c-0.483,0.658-5.221,6.059-8.117-1.314c-2.896-7.369-9.478-24.744-9.214-26.062C1.272,124.11,12.152,119.198,13.951,121.915z"/>
	<path fill="#1A264B" d="M105.387,87.341l8.485,22.027c0,0,29.423-5.703,45.481-11.014c16.059-5.311,24.746-11.016,24.746-11.016
		l-11.583-27.992C172.517,59.349,168.304,48.733,105.387,87.341z"/>
	<path fill="#234098" d="M181.402,88.934c0,0-15.434-29.009-12.625-30.919c2.808-1.906,9.794-1.91,15.323-3.314
		c5.528-1.402,26.589-14.74,30.099-17.549c3.509-2.812,21.762-15.795,27.729-17.199c5.967-1.404,24.57-5.967,24.57-5.967
		s4.562,6.314,6.318,17.195c1.756,10.883,2.106,16.796,0,20.686c-2.106,3.887-24.218,24.246-30.186,25.646
		C236.662,78.917,197.123,85.721,181.402,88.934z"/>
	<path fill="#F9C993" d="M241.751,55.403c0,0-1.405-20.359,0-26.326c1.404-5.965,7.723-13.453,14.041-12.693
		c6.318,0.762,14.039,6.619,14.391,9.656c0.352,3.037-4.562,126.592-4.562,126.592s10.18,0.352,10.53,1.754
		c0.35,1.404,0.796,4.211-1.708,3.861c-2.504-0.352-19.703,0.029-19.703,0.029S242.101,61.737,241.751,55.403z"/>
	<path fill="#F9C993" d="M266.497,13.985c0,0,8.074-2.811,13.689-4.562c5.616-1.756,11.232-2.104,14.742-2.459
		c3.51-0.352,11.233-4.562,15.795,0c4.563,4.564,9.126,18.254,6.669,20.359c-2.456,2.104-23.166,13.338-27.729,13.688
		c-4.562,0.354-7.02-5.266-7.02-5.266l-8.539,5.281L266.497,13.985z"/>
	<path fill="#292616" d="M283.18,8.61c0,0,3.661-5.465,9.109-6.1c5.448-0.631,6.147-3.088,12.468-2.385
		c6.318,0.701,8.424,2.455,11.583,7.021c3.158,4.562,4.562,9.127,4.212,12.637c-0.351,3.51-2.298,7.137-4.519,8.492
		c-2.224,1.354-14.145-10.602-14.145-10.602l-10.824-7.139L283.18,8.61z"/>
</g>
<g>
	<polygon fill="#F9C993" points="430.674,125.175 533.059,102.906 538.215,125.329 432.952,136.163 	"/>
	<path fill="#1F286E" d="M435.077,123.173c0,0-1.457,6.17-0.427,7.568c1.033,1.396,2.326,4.604,3.021,4.711
		c0.695,0.106-2.262,18.338-2.836,18.918c-0.576,0.578-6.062,5.213-7.834-2.506c-1.771-7.721-5.701-25.877-5.246-27.143
		C422.212,123.459,433.702,120.216,435.077,123.173z"/>
	<path fill="#1A264B" d="M532.995,103.099l3.479,23.349c0,0,29.961,0.844,46.791-0.84c16.83-1.686,26.551-5.355,26.551-5.355
		l-5.204-29.846C604.61,90.406,602.812,79.124,532.995,103.099z"/>
	<path fill="#F9C993" d="M725.583,53.885c0,0,8.397-1.58,14.215-2.479c5.814-0.902,11.42-0.416,14.943-0.244
		c3.521,0.172,11.782-2.848,15.619,2.342c3.836,5.19,6.317,19.404,3.575,21.123c-2.741,1.719-24.887,9.754-29.453,9.426
		c-4.562-0.329-6.159-6.247-6.159-6.247l-9.229,3.954L725.583,53.885z"/>
	<path fill="#234098" d="M609.814,120.249c0,0-15.071-30.92-11.438-32.494c3.637-1.578,16.529-3.951,23.299-4.496
		c6.768-0.543,33.859-11.291,38.469-13.719c4.609-2.426,28.32-13.293,35.609-13.76c7.287-0.465,30.041-2.121,30.041-2.121
		s4.369,7.672,4.674,19.799c0.305,12.131,3.037,13.496-3.369,22.465c-2.881,4.033-30.254,15.264-37.543,15.729
		C682.264,112.117,628.938,119.548,609.814,120.249z"/>
	<path fill="#292616" d="M742.878,51.046c0,0,4.432-4.859,9.914-4.678c5.479,0.184,6.539-2.146,12.684-0.512
		c6.146,1.631,7.967,3.68,10.414,8.658c2.447,4.98,3.158,9.701,2.291,13.119c-0.867,3.42-3.33,6.721-5.727,7.73
		c-2.398,1.01-12.414-12.58-12.414-12.58l-9.646-8.664L742.878,51.046z"/>
	<path fill="#F9C993" d="M675.979,94.673c0,0,32.906-1.053,36.854-1.842c3.949-0.789,11.057-6.846,11.584-10.268
		c0.525-3.423,2.104-10.27-2.369-12.9c-4.475-2.631-5.529-6.316-10.268-6.316c-4.739,0-38.961,5.529-41.33,5.791
		c-2.369,0.266-15.006,3.424-16.851,5.268c-1.842,1.844-5.791,3.424-3.686,12.107c2.104,8.688,26.061,70.555,26.061,70.555h20.008
		c0,0,2.105-3.16-0.266-3.949c-2.369-0.789-10.266-1.316-10.266-1.316L675.979,94.673z"/>
</g>
</svg>
